<?xml version="1.0" encoding="UTF-8" standalone="no"?><!-- Generator: Gravit.io --><svg xmlns="http://www.w3.org/2000/svg" xmlns:xlink="http://www.w3.org/1999/xlink" style="isolation:isolate" viewBox="0 0 1200 1200" width="1200pt" height="1200pt"><defs><clipPath id="_clipPath_VCuxNylYVgMCicvmrTl0c37iZwgm7gc9"><rect width="1200" height="1200"/></clipPath></defs><g clip-path="url(#_clipPath_VCuxNylYVgMCicvmrTl0c37iZwgm7gc9)"><path d="M 600 0 L 600 0 C 931.149 0 1200 268.851 1200 600 L 1200 600 C 1200 931.149 931.149 1200 600 1200 L 600 1200 C 268.851 1200 0 931.149 0 600 L 0 600 C 0 268.851 268.851 0 600 0 Z" style="stroke:none;fill:#FFFFFF;stroke-miterlimit:10;"/><path d=" M 974.875 887 L 600 887 L 225.125 887 L 412.562 516.5 L 600 146 L 787.438 516.5 L 974.875 887 Z  M 757.842 887 L 600 887 L 442.158 887 L 521.079 730.954 L 600 574.908 L 678.921 730.954 L 757.842 887 Z " fill-rule="evenodd" fill="rgb(0,128,128)"/></g></svg>